<svg fill="none" height="512" width="512" xmlns="http://www.w3.org/2000/svg" xmlns:xlink="http://www.w3.org/1999/xlink"><clipPath id="a"><path d="m0 0h512v512h-512z"/></clipPath><g clip-path="url(#a)"><path d="m0 0h512v512h-512z"/><path d="m230.938 179.813c0-14.118 11.444-25.563 25.562-25.563s25.563 11.445 25.563 25.563c0 14.117-11.445 25.562-25.563 25.562s-25.562-11.445-25.562-25.562zm-76.688 0c0-56.472 45.779-102.25 102.25-102.25s102.25 45.778 102.25 102.25c0 95.779-91.993 149.444-95.859 151.697-3.93 2.246-8.756 2.246-12.686 0-3.962-2.253-95.955-55.838-95.955-151.697zm25.563 0c0 67.421 57.26 112.171 76.687 125.416 19.412-13.229 76.687-57.995 76.687-125.416 0-42.354-34.334-76.688-76.687-76.688s-76.687 34.334-76.687 76.688zm196.144 108.049c-6.539-2.16-13.613 1.248-15.999 7.708s.775 13.648 7.148 16.257c26.377 9.762 42.769 22.83 42.769 34.142 0 21.344-58.346 51.125-153.375 51.125s-153.375-29.781-153.375-51.125c0-11.312 16.392-24.38 42.769-34.126 6.373-2.609 9.534-9.797 7.148-16.257s-9.46-9.868-15.999-7.708c-38.359 14.139-59.48 34.781-59.48 58.091 0 49.815 92.2 76.687 178.937 76.687s178.938-26.872 178.938-76.687c0-23.31-21.122-43.952-59.481-58.107z" fill="#f5bc00"/></g></svg>